<?xml version="1.0" encoding="UTF-8" standalone="no"?>
<svg
   xmlns:dc="http://purl.org/dc/elements/1.1/"
   xmlns:cc="http://creativecommons.org/ns#"
   xmlns:rdf="http://www.w3.org/1999/02/22-rdf-syntax-ns#"
   xmlns:svg="http://www.w3.org/2000/svg"
   xmlns="http://www.w3.org/2000/svg"
   viewBox="0 0 682.66669 682.66669"
   height="682.66669"
   width="682.66669"
   xml:space="preserve"
   id="svg2"
   version="1.1"><metadata
     id="metadata8"><rdf:RDF><cc:Work
         rdf:about=""><dc:format>image/svg+xml</dc:format><dc:type
           rdf:resource="http://purl.org/dc/dcmitype/StillImage" /></cc:Work></rdf:RDF></metadata><defs
     id="defs6"><clipPath
       id="clipPath18"
       clipPathUnits="userSpaceOnUse"><path
         id="path16"
         d="M 0,0 H 512 V 512 H 0 Z" /></clipPath><clipPath
       id="clipPath66"
       clipPathUnits="userSpaceOnUse"><path
         id="path64"
         d="m 102.962,207.724 h 16.974 v -5.274 h -16.974 z" /></clipPath><clipPath
       id="clipPath70"
       clipPathUnits="userSpaceOnUse"><path
         id="path68"
         d="m 102.962,207.724 h 16.974 v -5.274 h -16.974 z" /></clipPath><clipPath
       id="clipPath74"
       clipPathUnits="userSpaceOnUse"><path
         id="path72"
         d="m 102.964,207.724 h 16.972 v -5.274 h -16.972 z" /></clipPath><clipPath
       id="clipPath78"
       clipPathUnits="userSpaceOnUse"><path
         id="path76"
         d="m 102.964,207.724 h 16.972 v -5.273 h -16.972 z" /></clipPath><clipPath
       id="clipPath82"
       clipPathUnits="userSpaceOnUse"><path
         id="path80"
         d="m 102.964,207.724 h 16.972 v -5.274 h -16.972 z" /></clipPath><clipPath
       id="clipPath86"
       clipPathUnits="userSpaceOnUse"><path
         id="path84"
         d="m 102.964,207.724 h 16.972 v -5.274 h -16.972 z" /></clipPath><clipPath
       id="clipPath90"
       clipPathUnits="userSpaceOnUse"><path
         id="path88"
         d="m 102.964,207.724 h 16.972 v -5.273 h -16.972 z" /></clipPath><linearGradient
       id="linearGradient98"
       spreadMethod="pad"
       gradientTransform="matrix(16.971821,0,0,16.971821,102.96387,205.08691)"
       gradientUnits="userSpaceOnUse"
       y2="0"
       x2="1"
       y1="0"
       x1="0"><stop
         id="stop92"
         offset="0"
         style="stop-opacity:1;stop-color:#231815" /><stop
         id="stop94"
         offset="0.5"
         style="stop-opacity:1;stop-color:#ffffff" /><stop
         id="stop96"
         offset="1"
         style="stop-opacity:1;stop-color:#ffffff" /></linearGradient><mask
       id="mask100"
       height="1"
       width="1"
       y="0"
       x="0"
       maskUnits="userSpaceOnUse"><g
         id="g124"><g
           id="g122"
           clip-path="url(#clipPath82)"><path
             id="path102"
             style="fill:#000000;fill-opacity:1;fill-rule:nonzero;stroke:none"
             d="m 102.964,207.724 h 16.972 v -5.273 h -16.972 z" /><g
             id="g120"><g
               id="g104" /><g
               id="g118"><g
                 id="g116"
                 clip-path="url(#clipPath86)"><g
                   id="g114"><g
                     id="g112"
                     clip-path="url(#clipPath90)"><g
                       id="g110"><g
                         id="g108"><path
                           id="path106"
                           style="fill:url(#linearGradient98);stroke:none"
                           d="m 102.964,207.724 h 16.972 v -5.273 h -16.972 z" /></g></g></g></g></g></g></g></g></g></mask><linearGradient
       id="linearGradient132"
       spreadMethod="pad"
       gradientTransform="matrix(16.971821,0,0,16.971821,102.96387,205.08691)"
       gradientUnits="userSpaceOnUse"
       y2="0"
       x2="1"
       y1="0"
       x1="0"><stop
         id="stop126"
         offset="0"
         style="stop-opacity:1;stop-color:#ffffff" /><stop
         id="stop128"
         offset="0.5"
         style="stop-opacity:1;stop-color:#ffffff" /><stop
         id="stop130"
         offset="1"
         style="stop-opacity:1;stop-color:#ffffff" /></linearGradient><mask
       id="mask134"
       height="1"
       width="1"
       y="0"
       x="0"
       maskUnits="userSpaceOnUse"><g
         id="g172"><g
           id="g170"
           clip-path="url(#clipPath66)"><path
             id="path136"
             style="fill:#000000;fill-opacity:1;fill-rule:nonzero;stroke:none"
             d="m 102.962,207.724 h 16.974 v -5.273 h -16.974 z" /><g
             id="g168"><g
               id="g138" /><g
               id="g166"><g
                 id="g164"
                 clip-path="url(#clipPath70)"><path
                   id="path140"
                   style="fill:#000000;fill-opacity:1;fill-rule:nonzero;stroke:none"
                   d="m 102.962,207.724 h 16.972 v -5.273 h -16.972 z" /><g
                   id="g162"><g
                     id="g142" /><g
                     id="g160"><g
                       id="g158"
                       clip-path="url(#clipPath74)"><g
                         id="g156"><g
                           id="g154"
                           clip-path="url(#clipPath78)"><g
                             id="g152"><g
                               id="g144" /><g
                               id="g150"
                               mask="url(#mask100)"><g
                                 id="g148"><path
                                   id="path146"
                                   style="fill:url(#linearGradient132);stroke:none"
                                   d="m 102.964,207.724 h 16.972 v -5.273 h -16.972 z" /></g></g></g></g></g></g></g></g></g></g></g></g></g></mask><clipPath
       id="clipPath180"
       clipPathUnits="userSpaceOnUse"><path
         id="path178"
         d="m 102.962,207.724 h 16.974 v -5.274 h -16.974 z" /></clipPath><clipPath
       id="clipPath184"
       clipPathUnits="userSpaceOnUse"><path
         id="path182"
         d="m 102.964,202.451 h 16.972 v 5.273 h -16.972 z" /></clipPath><linearGradient
       id="linearGradient190"
       spreadMethod="pad"
       gradientTransform="matrix(16.971821,0,0,-16.971821,102.96381,205.08701)"
       gradientUnits="userSpaceOnUse"
       y2="0"
       x2="1"
       y1="0"
       x1="0"><stop
         id="stop186"
         offset="0"
         style="stop-opacity:1;stop-color:#ffffff" /><stop
         id="stop188"
         offset="1"
         style="stop-opacity:1;stop-color:#231815" /></linearGradient></defs><g
     transform="matrix(1.3333333,0,0,-1.3333333,0,682.66667)"
     id="g10"><g
       id="g12"><g
         clip-path="url(#clipPath18)"
         id="g14"><g
           transform="translate(306.7783,175.5068)"
           id="g20"><path
             id="path22"
             style="fill:#000000;fill-opacity:1;fill-rule:nonzero;stroke:none"
             d="M 0,0 V 22.842 H 5.321 L 5.276,18.997 c 0.703,1.342 1.718,2.411 3.045,3.204 1.326,0.793 2.891,1.192 4.692,1.192 2.808,0 4.99,-0.887 6.548,-2.657 1.555,-1.77 2.334,-4.364 2.334,-7.783 V 0 h -5.859 v 12.403 c 0,1.953 -0.397,3.45 -1.191,4.489 -0.793,1.036 -2.031,1.555 -3.708,1.555 -1.649,0 -2.998,-0.579 -4.053,-1.739 C 6.032,15.548 5.507,13.931 5.507,11.855 V 0 Z" /></g><path
           id="path24"
           style="fill:#000000;fill-opacity:1;fill-rule:nonzero;stroke:none"
           d="m 296.901,198.343 h 5.538 v -22.836 h -5.538 z" /><path
           id="path26"
           style="fill:#000000;fill-opacity:1;fill-rule:nonzero;stroke:none"
           d="m 302.336,202.45 h -5.435 v 5.273 h 5.435 z" /><g
           transform="translate(448.5762,175.5068)"
           id="g28"><path
             id="path30"
             style="fill:#000000;fill-opacity:1;fill-rule:nonzero;stroke:none"
             d="M 0,0 V 30.511 H 5.537 V 13.583 l 8.103,9.253 h 6.998 L 11.291,12.432 22.158,0 H 14.791 L 5.537,11.465 V 0 Z" /></g><g
           transform="translate(211.7305,175.5068)"
           id="g32"><path
             id="path34"
             style="fill:#000000;fill-opacity:1;fill-rule:nonzero;stroke:none"
             d="m 0,0 v 26.023 h -8.893 v 4.488 H 14.178 V 26.023 H 5.243 V 0 Z" /></g><g
           transform="translate(233.6689,194.792)"
           id="g36"><path
             id="path38"
             style="fill:#000000;fill-opacity:1;fill-rule:nonzero;stroke:none"
             d="m 0,0 c 0.309,0.537 0.863,1.126 1.367,1.616 1.44,1.402 4.031,2.594 6.622,2.488 0,0 0.014,-0.303 -0.003,-0.985 -0.033,-1.335 -0.045,-3.896 0.005,-5.23 0,0 -0.578,-0.015 -1.571,0 -3.388,0.05 -5.224,-1.297 -6.124,-3.108 -0.712,-1.63 -0.652,-3.421 -0.676,-4.677 -0.073,-3.739 -0.051,-5.648 -0.009,-9.389 h -5.546 c 0.04,5.463 0.04,20.461 0.007,22.836 h 5.533 c -0.048,-0.756 -0.01,-3.524 -0.01,-4.282 0,0 0.311,0.57 0.405,0.731" /></g><g
           transform="translate(378.082,180.3232)"
           id="g40"><path
             id="path42"
             style="fill:#000000;fill-opacity:1;fill-rule:nonzero;stroke:none"
             d="m 0,0 h 4.597 c 2.568,0 4.596,0.417 6.087,1.247 1.488,0.833 2.553,2.029 3.196,3.592 0.642,1.561 0.964,3.451 0.964,5.67 0,2.19 -0.322,4.073 -0.964,5.65 -0.643,1.576 -1.708,2.787 -3.196,3.633 -1.491,0.848 -3.519,1.27 -6.087,1.27 L 0,21.062 Z M -5.605,-4.816 V 25.835 H 4.858 c 3.592,0 6.548,-0.634 8.87,-1.904 2.32,-1.271 4.043,-3.05 5.165,-5.341 1.125,-2.294 1.687,-4.986 1.687,-8.081 0,-3.094 -0.562,-5.787 -1.687,-8.078 C 17.771,0.138 16.048,-1.642 13.728,-2.912 11.406,-4.183 8.45,-4.816 4.858,-4.816 Z" /></g><g
           transform="translate(436.4844,189.3125)"
           id="g44"><path
             id="path46"
             style="fill:#000000;fill-opacity:1;fill-rule:nonzero;stroke:none"
             d="m 0,0 c -3.983,1.238 -3.974,2.448 -3.904,3.277 0.05,0.584 0.709,2.021 3.209,2.021 1.809,0 3.509,-0.889 4.288,-2.361 L 7.709,4.868 C 6.862,6.447 4.918,9.49 -0.563,9.49 -7.204,9.49 -8.76,5.222 -8.76,2.878 c 0,-4.798 4.567,-6.253 6.323,-6.919 1.757,-0.666 6.016,-1.657 6.016,-3.724 0,-2.025 -2.464,-2.442 -3.579,-2.442 -1.115,0 -3.889,0.197 -4.42,2.71 h -4.623 c 0.31,-3.091 1.99,-6.901 8.912,-6.901 6.152,0 8.563,3.67 8.563,7.126 C 8.432,-2.853 4.254,-1.396 0,0" /></g><g
           transform="translate(254.3667,179.0869)"
           id="g48"><path
             id="path50"
             style="fill:#000000;fill-opacity:1;fill-rule:nonzero;stroke:none"
             d="M 0,0 C -3.437,-0.646 -5.375,1.16 -5.304,3.135 -5.195,6.177 0.685,7.541 5.342,5.445 5.343,5.288 5.344,5.13 5.345,4.971 4.941,2.781 2.41,0.452 0,0 m 0.7,19.821 c -7.586,0 -9.98,-4.46 -9.98,-7.586 h 5.063 c 0,0 0.134,2.864 4.905,2.864 3.836,0 4.639,-2.781 4.639,-5.366 V 9.69 c -3.821,0.995 -15.957,1.936 -15.957,-6.613 0,-4.042 3.508,-7.179 8.153,-7.179 3.527,0 5.603,0.692 7.862,2.935 0.01,-1.437 0.018,-2.405 0.018,-2.405 h 5.277 v 14.018 c 0,4.546 -2.392,9.375 -9.98,9.375" /></g><g
           transform="translate(280.4219,180.3369)"
           id="g52"><path
             id="path54"
             style="fill:#000000;fill-opacity:1;fill-rule:nonzero;stroke:none"
             d="m 0,0 c -3.692,0.005 -6.664,2.982 -6.636,6.648 0.029,3.622 3.01,6.537 6.678,6.531 C 3.73,13.172 6.699,10.198 6.684,6.526 6.668,2.932 3.66,-0.006 0,0 m 6.706,25.681 v -9.824 c -0.492,0.342 -0.821,0.583 -1.16,0.8 -3.697,2.372 -7.525,2.572 -11.334,0.417 -5.133,-2.905 -7.262,-9.636 -4.949,-15.229 2.477,-5.996 8.769,-8.753 14.502,-6.305 1.004,0.429 1.914,1.085 2.881,1.645 0.017,-0.032 0.04,-0.065 0.06,-0.099 v -1.908 h 5.39 v 30.503 z" /></g><g
           transform="translate(407.1338,189.7363)"
           id="g56"><path
             id="path58"
             style="fill:#000000;fill-opacity:1;fill-rule:nonzero;stroke:none"
             d="m 0,0 c 1.013,2.575 3.391,4.384 6.163,4.384 2.774,0 5.151,-1.809 6.163,-4.384 z m 17.428,-4.684 c 0.1,0.622 0.154,1.259 0.154,1.91 0,6.588 -4.83,11.929 -11.419,11.929 -6.588,0 -11.418,-5.341 -11.418,-11.929 0,-6.588 4.83,-11.929 11.418,-11.929 3.6,0 6.824,1.597 9.011,4.117 0.642,0.684 0.858,1.035 0.858,1.035 l -4.66,2.296 c -1.226,-1.631 -3.101,-2.678 -5.209,-2.678 -3.073,0 -5.655,2.225 -6.436,5.251 H 12.6 v -0.002 z" /></g><g
           id="g60"><g
             id="g62" /><g
             mask="url(#mask134)"
             id="g174"><g
               id="g176" /><g
               id="g204"><g
                 id="g202"
                 clip-path="url(#clipPath180)"><g
                   id="g200"><g
                     id="g198"
                     clip-path="url(#clipPath184)"><g
                       id="g196"><g
                         id="g194"><path
                           id="path192"
                           style="fill:url(#linearGradient190);stroke:none"
                           d="m 102.964,202.451 h 16.972 v 5.273 h -16.972 z" /></g></g></g></g></g></g></g></g><path
           id="path206"
           style="fill:#000000;fill-opacity:1;fill-rule:nonzero;stroke:none"
           d="m 102.962,202.45 h -5.273 v 5.273 h 5.273 z" /><g
           transform="translate(134.8296,182.915)"
           id="g208"><path
             id="path210"
             style="fill:#000000;fill-opacity:1;fill-rule:nonzero;stroke:none"
             d="m 0,0 -5.984,15.516 h -5.784 l 9.342,-22.897 h 4.852 l 9.342,22.897 H 5.984 Z" /></g><path
           id="path212"
           style="fill:#000000;fill-opacity:1;fill-rule:nonzero;stroke:none"
           d="m 114.662,175.549 h 5.273 v 22.896 h -5.273 z" /><g
           transform="translate(102.9619,198.4463)"
           id="g214"><path
             id="path216"
             style="fill:#000000;fill-opacity:1;fill-rule:nonzero;stroke:none"
             d="m 0,0 h -5.273 v -14.709 -2.1 c 0,-4.142 2.618,-6.616 6.622,-6.551 1.469,0.023 2.886,0.397 3.736,0.673 l 0.747,4.576 c 0,0 -2.006,-0.446 -2.698,-0.559 C 1.53,-18.93 0,-18.62 0,-16.299 v 1.59 10.025 H 6.546 L 7.31,-10e-4 H 0 Z" /></g><g
           transform="translate(67.7158,205.9639)"
           id="g218"><path
             id="path220"
             style="fill:#000000;fill-opacity:1;fill-rule:nonzero;stroke:none"
             d="M 0,0 H -5.274 V -21.262 L -21.177,0 h -5.273 v -30.415 h 5.273 V -9.153 L -5.274,-30.415 H 0 Z" /></g><g
           transform="translate(82.7339,179.0869)"
           id="g222"><path
             id="path224"
             style="fill:#000000;fill-opacity:1;fill-rule:nonzero;stroke:none"
             d="M 0,0 C -3.436,-0.646 -5.375,1.16 -5.304,3.135 -5.195,6.177 0.685,7.541 5.343,5.445 5.344,5.288 5.344,5.13 5.345,4.971 4.942,2.781 2.41,0.452 0,0 m 0.701,19.821 c -7.587,0 -9.98,-4.46 -9.98,-7.586 h 5.063 c 0,0 0.133,2.864 4.905,2.864 3.835,0 4.638,-2.781 4.638,-5.366 V 9.69 c -3.821,0.995 -15.957,1.936 -15.957,-6.613 0,-4.042 3.508,-7.179 8.153,-7.179 3.527,0 5.603,0.692 7.862,2.935 0.011,-1.437 0.018,-2.405 0.018,-2.405 h 5.278 v 14.018 c 0,4.546 -2.393,9.375 -9.98,9.375" /></g><g
           transform="translate(158.0479,194.1201)"
           id="g226"><path
             id="path228"
             style="fill:#000000;fill-opacity:1;fill-rule:nonzero;stroke:none"
             d="M 0,0 C 2.773,0 5.151,-1.809 6.163,-4.384 H -6.163 C -5.151,-1.809 -2.773,0 0,0 m 0,-14.316 c -3.074,0 -5.656,2.224 -6.437,5.251 H 6.437 c 0,-0.001 -0.001,-0.002 -0.001,-0.002 h 4.828 c 0.1,0.622 0.154,1.258 0.154,1.909 0,6.589 -4.83,11.929 -11.418,11.929 -6.588,0 -11.419,-5.34 -11.419,-11.929 0,-6.588 4.831,-11.929 11.419,-11.929 3.599,0 6.823,1.597 9.011,4.117 0.642,0.684 0.858,1.035 0.858,1.035 l -4.661,2.296 C 3.983,-13.27 2.107,-14.316 0,-14.316" /></g><g
           transform="translate(192.8135,175.5068)"
           id="g230"><path
             id="path232"
             style="fill:#000000;fill-opacity:1;fill-rule:nonzero;stroke:none"
             d="m 0,0 -8.932,11.668 8.584,11.214 h -6.158 l -5.505,-7.192 -5.506,7.192 h -6.158 L -15.091,11.668 -24.022,0 h 6.158 L -12.011,7.646 -6.159,0 Z" /></g><g
           transform="translate(345.0068,193.5176)"
           id="g234"><path
             id="path236"
             style="fill:#000000;fill-opacity:1;fill-rule:nonzero;stroke:none"
             d="m 0,0 c -3.796,0.006 -6.881,-2.955 -6.91,-6.633 -0.029,-3.722 3.046,-6.746 6.866,-6.752 3.788,-0.005 6.9,2.979 6.916,6.629 C 6.889,-3.026 3.816,-0.007 0,0 m -8.618,-20.331 c 1.345,-0.577 2.574,-1.157 3.842,-1.638 2.15,-0.813 4.372,-1.147 6.676,-0.869 3.474,0.421 5.467,2.931 5.036,6.393 -0.009,0.072 -0.069,0.138 -0.102,0.202 -1.002,-0.569 -1.944,-1.236 -2.982,-1.671 -5.931,-2.486 -12.443,0.313 -15.007,6.403 -2.392,5.681 -0.19,12.517 5.123,15.467 3.94,2.189 7.9,1.985 11.727,-0.424 C 6.061,3.303 6.41,3.05 6.956,2.679 c 0,0.62 0.02,1.07 -0.005,1.517 v 0.701 c 1.366,-0.013 4.052,-0.023 5.418,0.005 0,0 -10e-4,-0.459 -10e-4,-0.932 -0.002,-4.264 0.006,-8.527 -0.003,-12.79 -0.007,-3.142 0.022,-6.285 -0.064,-9.426 -0.127,-4.626 -2.879,-8.049 -7.384,-9.138 -5.133,-1.239 -10.026,-0.52 -14.658,2.026 l -1.024,0.487 c 0,0 1.613,3.355 2.147,4.54" /></g><g
           transform="translate(208.3125,238.6611)"
           id="g238"><path
             id="path240"
             style="fill:#000000;fill-opacity:1;fill-rule:nonzero;stroke:none"
             d="M 0,0 H 22.349 L -9.038,53.894 -20.281,34.68 Z" /></g><g
           transform="translate(176.8447,292.5547)"
           id="g242"><path
             id="path244"
             style="fill:#2650ff;fill-opacity:1;fill-rule:nonzero;stroke:none"
             d="M 0,0 -31.444,-53.894 H -8.906 L 11.187,-19.213 22.43,0 Z" /></g><g
           transform="translate(199.2749,292.2988)"
           id="g246"><path
             id="path248"
             style="fill:#2650ff;fill-opacity:1;fill-rule:nonzero;stroke:none"
             d="M 0,0 H -22.488" /></g><g
           transform="translate(179.1548,327.2397)"
           id="g250"><path
             id="path252"
             style="fill:#ffbc07;fill-opacity:1;fill-rule:nonzero;stroke:none"
             d="M 0,0 H -22.567 L -2.31,-34.685 h 22.43 z" /></g><g
           transform="translate(167.9629,346.4492)"
           id="g254"><path
             id="path256"
             style="fill:#000000;fill-opacity:1;fill-rule:nonzero;stroke:none"
             d="m 0,0 h -11.471 -11.091 l 11.187,-19.209 h 22.567 z" /></g><g
           transform="translate(346.8604,311.3179)"
           id="g258"><path
             id="path260"
             style="fill:#000000;fill-opacity:1;fill-rule:nonzero;stroke:none"
             d="m 0,0 c 0,-8.715 -7.064,-15.779 -15.779,-15.779 h -0.514 -5.027 -15.29 v 31.701 h 15.29 5.027 0.514 C -7.064,15.922 0,8.857 0,0.143 Z m 17.314,14.451 c -1.617,4.091 -3.939,7.674 -6.969,10.757 -3.031,3.081 -6.768,5.505 -11.211,7.272 -4.446,1.767 -9.447,2.651 -15,2.651 h -40.527 l -29.814,-51.386 -29.839,51.386 -22.514,0.01 -20.221,-34.606 11.094,-19.124 v 0 l 0.102,-0.174 0.101,0.174 20.194,34.507 29.827,-51.411 h 22.487 l 18.589,32.201 V -72.64 l 19.696,-0.017 v 40.519 h 0.068 20.757 c 5.553,0 10.554,0.883 15,2.65 4.443,1.767 8.18,4.192 11.211,7.273 3.03,3.08 5.352,6.667 6.969,10.757 1.615,4.092 2.424,8.41 2.424,12.954 0,4.546 -0.809,8.864 -2.424,12.955" /></g></g></g></g></svg>